<svg width="220" height="220" viewBox="0 0 220 220" fill="none" xmlns="http://www.w3.org/2000/svg">
<path d="M220 110C220 170.751 170.751 220 110 220C49.2487 220 0 170.751 0 110C0 49.2487 49.2487 9.53674e-06 110 9.53674e-06C170.751 9.53674e-06 220 49.2487 220 110ZM17.6 110C17.6 161.031 58.9689 202.4 110 202.4C161.031 202.4 202.4 161.031 202.4 110C202.4 58.9689 161.031 17.6 110 17.6C58.9689 17.6 17.6 58.9689 17.6 110Z" fill="#E9E9FF"/>
<path d="M110 8.80001C110 3.93991 113.946 -0.0365803 118.791 0.351817C133.685 1.54591 148.213 5.76516 161.472 12.7858C177.33 21.1821 190.893 33.3302 200.979 48.1708C211.065 63.0115 217.367 80.0941 219.336 97.9292C221.305 115.764 218.881 133.81 212.275 150.494C205.67 167.177 195.084 181.991 181.439 193.645C167.795 205.298 151.507 213.437 133.996 217.351C116.484 221.265 98.2815 220.836 80.974 216.101C66.5021 212.142 53.0238 205.273 41.3489 195.948C37.5515 192.915 37.3969 187.315 40.7238 183.772C44.0508 180.229 49.5967 180.092 53.4398 183.066C62.9881 190.458 73.9165 195.924 85.6181 199.125C100.156 203.102 115.447 203.463 130.156 200.175C144.866 196.887 158.548 190.05 170.009 180.262C181.47 170.473 190.363 158.029 195.911 144.015C201.46 130.001 203.496 114.842 201.842 99.8606C200.188 84.8791 194.894 70.5297 186.422 58.0635C177.95 45.5973 166.557 35.3929 153.237 28.3401C142.515 22.6633 130.807 19.167 118.787 18.0187C113.949 17.5566 110 13.6601 110 8.80001Z" fill="url(#paint0_radial)"/>
<defs>
<radialGradient id="paint0_radial" cx="0" cy="0" r="1" gradientUnits="userSpaceOnUse" gradientTransform="translate(30.25 -93.5) rotate(42.7688) scale(299.687)">
<stop stop-color="white"/>
<stop offset="1" stop-color="#7012CE"/>
</radialGradient>
</defs>
</svg>
